<svg width="88" height="88" viewBox="0 0 88 88" fill="none" xmlns="http://www.w3.org/2000/svg">
<circle cx="44" cy="44" r="44" fill="#015BBB"/>
<path d="M66.5696 53.2053L59.4911 34.6935V34.6931C59.3759 34.389 59.0806 34.1878 58.7516 34.1888H56.1639V29.0528C56.1853 28.8225 56.1018 28.5949 55.936 28.4321L49.644 22.2252C49.4955 22.0797 49.2947 21.999 49.0854 22H34.63C33.7958 22 32.9955 22.327 32.4057 22.9089C31.8155 23.4911 31.484 24.2805 31.484 25.1035V34.1887H28.865C28.536 34.1877 28.2407 34.3889 28.1255 34.693L21.047 53.2049V53.2052C21.0232 53.2942 21.0074 53.385 21 53.4768V63.1206C21 64.1494 21.4143 65.1361 22.1516 65.8639C22.8893 66.5913 23.8896 67 24.9325 67H62.6845C63.7273 67 64.7276 66.5913 65.4654 65.8639C66.2027 65.1362 66.617 64.1494 66.617 63.1206V53.4768C66.6096 53.385 66.5938 53.2942 66.5699 53.2052L66.5696 53.2053ZM33.0251 25.1028C33.0251 24.6913 33.1909 24.2965 33.4858 24.0055C33.7807 23.7146 34.1807 23.5511 34.5981 23.5511H48.7551L54.583 29.3002V47.9211C54.583 48.3329 54.4172 48.7274 54.1223 49.0184C53.8274 49.3093 53.4271 49.4728 53.01 49.4728H34.6292C34.2121 49.4728 33.8122 49.3093 33.5169 49.0184C33.222 48.7274 33.0562 48.3329 33.0562 47.9211L33.0251 25.1028ZM29.4072 35.7088H31.4521V47.9055C31.4521 48.7284 31.7836 49.5179 32.3735 50.0997C32.9633 50.682 33.7636 51.0089 34.5981 51.0089H52.9861C53.8203 51.0089 54.6205 50.682 55.2104 50.0997C55.8006 49.5178 56.1321 48.7284 56.1321 47.9055V35.7398H58.177L64.6579 52.6999L49.5958 52.7003C49.1614 52.7003 48.8093 53.0477 48.8093 53.4761C48.8093 55.2392 47.856 56.8681 46.3083 57.7496C44.7605 58.6308 42.854 58.6308 41.3063 57.7496C39.7586 56.8681 38.8053 55.2392 38.8053 53.4761C38.8053 53.2704 38.7225 53.0729 38.575 52.9275C38.4272 52.782 38.2274 52.7003 38.0188 52.7003H22.9261L29.4072 35.7088ZM65.0433 63.1205C65.0433 63.7378 64.7947 64.3301 64.3523 64.7664C63.9099 65.2028 63.3095 65.4481 62.6839 65.4481H24.9319C24.3062 65.4481 23.7058 65.2029 23.2634 64.7664C22.8211 64.33 22.5724 63.7377 22.5724 63.1205V54.2525H37.2795C37.5383 56.3703 38.8356 58.2271 40.7499 59.2192C42.6642 60.2112 44.9506 60.2112 46.8649 59.2192C48.7792 58.2271 50.0766 56.3703 50.3353 54.2525H65.0424L65.0433 63.1205Z" fill="white"/>
<path d="M37.3746 32.311H43.8081C44.2425 32.311 44.5946 31.9636 44.5946 31.5351C44.5946 31.1063 44.2425 30.7593 43.8081 30.7593H37.3746C36.9403 30.7593 36.5881 31.1063 36.5881 31.5351C36.5881 31.9636 36.9403 32.311 37.3746 32.311Z" fill="white"/>
<path d="M37.3746 35.8559H50.5798C51.0144 35.8559 51.3663 35.5089 51.3663 35.0801C51.3663 34.6516 51.0144 34.3042 50.5798 34.3042H37.3746C36.9403 34.3042 36.5881 34.6516 36.5881 35.0801C36.5881 35.5089 36.9403 35.8559 37.3746 35.8559Z" fill="white"/>
<path d="M37.3746 39.4021H50.5798C51.0144 39.4021 51.3663 39.0547 51.3663 38.6262C51.3663 38.1978 51.0144 37.8503 50.5798 37.8503H37.3746C36.9403 37.8503 36.5881 38.1978 36.5881 38.6262C36.5881 39.0547 36.9403 39.4021 37.3746 39.4021Z" fill="white"/>
<path d="M37.3746 42.948H50.5798C51.0144 42.948 51.3663 42.6006 51.3663 42.1721C51.3663 41.7437 51.0144 41.3962 50.5798 41.3962H37.3746C36.9403 41.3962 36.5881 41.7437 36.5881 42.1721C36.5881 42.6006 36.9403 42.948 37.3746 42.948Z" fill="white"/>
<path d="M37.3746 46.4939H50.5798C51.0144 46.4939 51.3663 46.1465 51.3663 45.718C51.3663 45.2896 51.0144 44.9421 50.5798 44.9421H37.3746C36.9403 44.9421 36.5881 45.2896 36.5881 45.718C36.5881 46.1465 36.9403 46.4939 37.3746 46.4939Z" fill="white"/>
</svg>
