<svg width="88" height="88" viewBox="0 0 88 88" fill="none" xmlns="http://www.w3.org/2000/svg">
<circle cx="44" cy="44" r="44" fill="#015BBB"/>
<path d="M50.5105 35.3816C50.5105 31.7895 47.5895 28.8684 43.9973 28.8684C40.4052 28.8684 37.4841 31.7895 37.4841 35.3816C37.4841 38.9737 40.4052 41.8948 43.9973 41.8948C47.5895 41.8948 50.5105 38.9737 50.5105 35.3816ZM39.2603 35.3816C39.2603 32.7665 41.3821 30.6448 43.9972 30.6448C46.6123 30.6448 48.734 32.7665 48.734 35.3816C48.734 37.9967 46.6123 40.1184 43.9972 40.1184C41.3821 40.1184 39.2603 37.9967 39.2603 35.3816Z" fill="white"/>
<path d="M60.8224 54.9407C58.1777 53.944 54.6152 53.1941 50.6576 52.7993L53.7267 48.8322C53.9142 48.5855 54.1215 48.3486 54.3287 48.0921L54.5162 47.875C59.5984 41.7664 59.4011 32.4013 54.0721 26.5493L54.0623 26.5394C51.3879 23.6085 47.8156 22 43.9967 22C40.1778 22 36.6053 23.6085 33.9312 26.5394L33.9213 26.5493C28.5825 32.4012 28.3852 41.7667 33.4772 47.875L33.6647 48.0921C33.8818 48.3487 34.0792 48.5855 34.2667 48.8322L37.3358 52.7993C33.3786 53.1941 29.8062 53.9342 27.171 54.9407C22.898 56.5592 22 58.444 22 59.7467C22 61.9079 24.3586 63.7532 28.8191 65.1053C32.875 66.3289 38.2729 67 43.9968 67C49.7207 67 55.1189 66.3191 59.1844 65.0954C63.645 63.7533 66.0035 61.898 66.0035 59.7369C65.9936 58.4441 65.0956 56.5592 60.8225 54.9408L60.8224 54.9407ZM35.6775 47.7467C35.4604 47.4704 35.2433 47.2039 35.0262 46.9474L34.8485 46.7303C32.6676 44.1152 31.513 40.7204 31.5821 37.1682C31.6512 33.6057 32.9538 30.2603 35.2433 27.7441L35.2532 27.7343C37.5722 25.1783 40.6807 23.7771 43.9965 23.7771C47.3123 23.7771 50.4209 25.1883 52.7498 27.7442L52.7597 27.754C55.0492 30.2705 56.3518 33.6159 56.4209 37.1781C56.49 40.7307 55.3255 44.1255 53.1544 46.7402L52.9768 46.9573C52.7597 47.2139 52.5426 47.4803 52.3255 47.7566L43.9966 58.5133L35.6775 47.7467ZM58.6705 63.3981C54.7627 64.5823 49.5524 65.2237 43.9963 65.2237C38.4402 65.2237 33.2297 64.5724 29.322 63.3981C25.2266 62.1645 23.7661 60.7041 23.7661 59.7468C23.7661 58.7303 25.276 57.556 27.7924 56.6086C30.5358 55.5725 34.3648 54.8225 38.6177 54.4771L43.2854 60.5166C43.4532 60.7337 43.7097 60.862 43.986 60.862C44.2624 60.862 44.5189 60.7337 44.6867 60.5166L49.3544 54.4771C53.6077 54.8225 57.4366 55.5725 60.1797 56.6086C62.706 57.5658 64.206 58.7402 64.206 59.7468C64.2158 61.2073 61.354 62.5889 58.6698 63.3981H58.6705Z" fill="white"/>
</svg>
