<svg width="67" height="60" viewBox="0 0 67 60" fill="none" xmlns="http://www.w3.org/2000/svg">
<path d="M66.5502 9.79632C66.5502 9.22335 66.1534 8.72361 65.5901 8.60147C65.5022 8.58138 64.9635 8.4642 64.1013 8.2951V31.6243C65.0342 32.6359 65.8595 33.7449 66.5501 34.9453L66.5502 9.79632Z" fill="#FED501"/>
<path d="M1.78709 52.6457C1.84359 52.6407 7.31457 52.041 13.8974 52.041C22.5202 52.041 29.1052 53.0546 32.9409 54.9723C33.1146 55.0581 33.3008 55.102 33.4896 55.102C33.6758 55.102 33.8616 55.0581 34.0382 54.9723C34.4618 54.7593 34.9297 54.5634 35.4194 54.3746C34.7849 53.4392 34.2413 52.4423 33.7859 51.3944C33.6851 51.4019 33.5896 51.4287 33.4892 51.4287C32.9208 51.4287 32.3529 51.2939 31.8461 51.0415C22.9809 46.6068 6.71154 46.5306 6.55082 46.5306C4.52562 46.5306 2.87745 44.8825 2.87745 42.8573V8.29529C2.01529 8.46437 1.47667 8.58156 1.38838 8.60123C0.82547 8.72638 0.428711 9.22316 0.428711 9.79651V51.4288C0.428711 51.7766 0.575614 52.1098 0.835102 52.3424C1.0971 52.5747 1.44238 52.6877 1.78766 52.6459L1.78709 52.6457Z" fill="#FED501"/>
<path d="M32.3254 42.8572H32.2639V40.4085H32.6314C32.803 39.566 33.0478 38.7553 33.3295 37.9598L32.2639 37.9594V35.5106H34.3921C37.4729 29.6869 43.5854 25.7146 50.6316 25.7146C54.7729 25.7146 58.5811 27.1008 61.6523 29.4127V1.22464C61.6523 0.548719 61.104 0 60.4281 0C59.7593 0 44.7596 0.0636158 34.7139 4.23919V33.0605H32.2652L32.2648 4.23919C22.2193 0.0635357 7.21919 0 6.55062 0C5.87471 0 5.32642 0.548687 5.32642 1.22464V42.8569C5.32642 43.5329 5.87469 44.0816 6.55062 44.0816C6.7172 44.0816 23.4834 44.1402 32.9087 48.8352C32.5023 47.3163 32.2646 45.7272 32.2646 44.0816C32.2646 43.6677 32.2989 43.2634 32.3261 42.8569L32.3254 42.8572Z" fill="#FED501"/>
<path d="M50.632 60C59.424 60 66.5501 52.8733 66.5501 44.0818C66.5501 35.2898 59.4235 28.1637 50.632 28.1637C41.84 28.1637 34.7139 35.2904 34.7139 44.0818C34.7139 52.8734 41.8401 60 50.632 60ZM48.0116 40.4079L50.632 32.5347L53.2473 40.4079H61.6521L54.8687 45.4993L57.4351 53.4977L50.632 48.5775L43.8164 53.4951L46.3902 45.4968L39.6118 40.4079H48.0116Z" fill="#FED501"/>
</svg>
