<svg width="52" height="60" viewBox="0 0 52 60" fill="none" xmlns="http://www.w3.org/2000/svg">
<path d="M47.1428 16.2557V47.1429H51.4286V12.8571H43.7444L47.1428 16.2557Z" fill="#FED501"/>
<path d="M38.5715 7.68418V0H12.8572V4.28572H35.1729L38.5715 7.68418Z" fill="#FED501"/>
<path d="M41.6014 10.7143H51.4284L40.7141 0V9.82704L41.6014 10.7143Z" fill="#FED501"/>
<path d="M28.7443 10.7143L32.1428 14.1127V6.42856H6.42847V10.7143H28.7443Z" fill="#FED501"/>
<path d="M45.0001 19.2857H37.3159L40.7144 22.6842V53.5713H45.0001V19.2857Z" fill="#FED501"/>
<path d="M34.2856 6.42856V16.2556L35.1729 17.1429H45L34.2856 6.42856Z" fill="#FED501"/>
<path d="M38.5714 25.7143H25.7143V12.8571H0V60H38.5714V25.7143Z" fill="#FED501"/>
<path d="M27.8572 12.8571V23.5714H38.5715L27.8572 12.8571Z" fill="#FED501"/>
</svg>
