<svg width="88" height="89" viewBox="0 0 88 89" fill="none" xmlns="http://www.w3.org/2000/svg">
<circle cx="44" cy="44.5" r="44" fill="#015BBB"/>
<path d="M64.491 29.9107H53.1807V26.3103C53.1784 25.3003 52.7816 24.3327 52.0774 23.6185C51.3731 22.9045 50.4183 22.5023 49.4223 22.5H38.5771C37.5811 22.5023 36.6263 22.9046 35.922 23.6185C35.2178 24.3328 34.821 25.3003 34.8187 26.3103V29.9107H23.5084C22.3127 29.9107 21.1659 30.3921 20.3204 31.2492C19.4749 32.1063 19 33.2689 19 34.4809V62.0343C19.0023 63.2449 19.4784 64.4051 20.3235 65.2603C21.169 66.1158 22.3144 66.596 23.5085 66.596H64.4915C65.6856 66.596 66.831 66.1158 67.6765 65.2603C68.5216 64.4051 68.9976 63.2449 69 62.0343V34.4809C69 33.2688 68.5251 32.1063 67.6796 31.2492C66.8341 30.3921 65.6872 29.9107 64.4916 29.9107H64.491ZM36.5424 26.3103C36.5424 25.7633 36.7568 25.2387 37.1382 24.852C37.5199 24.465 38.0372 24.2477 38.5768 24.2477H49.422C49.9616 24.2477 50.4789 24.465 50.8606 24.852C51.242 25.2386 51.4564 25.7633 51.4564 26.3103V29.9107H36.5422L36.5424 26.3103ZM23.508 31.6585H64.491C65.1737 31.6511 65.8356 31.8992 66.349 32.3556C66.8628 32.8117 67.1926 33.444 67.2753 34.1314L57.6287 44.7667H47.9736V42.1451C47.9736 41.9133 47.8828 41.691 47.7211 41.5271C47.5595 41.3633 47.3401 41.2712 47.1115 41.2712H40.8877C40.4113 41.2712 40.0257 41.6621 40.0257 42.1451V44.7667H30.3706L20.724 34.1314C20.8067 33.444 21.1365 32.8116 21.6503 32.3556C22.1637 31.8992 22.8256 31.6511 23.5083 31.6585H23.508ZM46.2488 43.0188V49.5814H41.7491V43.0188H46.2488ZM64.49 64.8656H23.508C22.768 64.8656 22.0587 64.5667 21.536 64.0358C21.0138 63.5044 20.7213 62.7843 20.7236 62.0341V36.6918L29.3442 46.2346C29.5086 46.4144 29.7403 46.5159 29.9823 46.5143H40.0256V50.4553C40.0256 50.687 40.1164 50.9094 40.2781 51.0733C40.4397 51.2371 40.6591 51.3292 40.8877 51.3292H47.1118H47.1115C47.3401 51.3292 47.5594 51.2371 47.7211 51.0733C47.8827 50.9094 47.9735 50.687 47.9735 50.4553V46.5143H58.0079C58.25 46.5159 58.4813 46.4144 58.646 46.2346L67.2751 36.6918V62.0341C67.2774 62.7843 66.9849 63.5045 66.4627 64.0358C65.9401 64.5667 65.2308 64.8656 64.4907 64.8656H64.49Z" fill="white"/>
</svg>
