<svg width="88" height="89" viewBox="0 0 88 89" fill="none" xmlns="http://www.w3.org/2000/svg">
<circle cx="44" cy="44.5" r="44" fill="#015BBB"/>
<path d="M44.1094 47.8413C43.8063 47.8413 43.5608 48.0872 43.5608 48.3903C43.5608 48.6931 43.8063 48.939 44.1094 48.939C44.546 48.939 44.9649 49.1124 45.2736 49.4211C45.5823 49.7298 45.7558 50.1487 45.7558 50.5853C45.7558 50.8885 46.0016 51.134 46.3044 51.134C46.6076 51.134 46.8534 50.8885 46.8534 50.5853C46.8534 49.8577 46.5642 49.1599 46.0497 48.645C45.5349 48.1305 44.837 47.8413 44.1094 47.8413L44.1094 47.8413Z" fill="white"/>
<path d="M44.1097 26.9882C44.8373 26.9882 45.5351 26.699 46.05 26.1845C46.5645 25.6697 46.8537 24.9718 46.8537 24.2442C46.8537 23.941 46.6078 23.6956 46.3047 23.6956C46.0018 23.6956 45.756 23.941 45.756 24.2442C45.756 24.6808 45.5826 25.0997 45.2739 25.4084C44.9652 25.7171 44.5463 25.8905 44.1097 25.8905C43.8065 25.8905 43.561 26.1364 43.561 26.4392C43.561 26.7424 43.8065 26.9882 44.1097 26.9882L44.1097 26.9882Z" fill="white"/>
<path d="M57.2801 26.9882C57.5833 26.9882 57.8288 26.7423 57.8288 26.4392C57.8288 26.1364 57.5833 25.8905 57.2801 25.8905C56.8436 25.8905 56.4246 25.7171 56.1159 25.4084C55.8073 25.0997 55.6338 24.6808 55.6338 24.2442C55.6338 23.941 55.388 23.6956 55.0851 23.6956C54.782 23.6956 54.5361 23.941 54.5361 24.2442C54.5361 24.9718 54.8253 25.6696 55.3398 26.1845C55.8547 26.699 56.5525 26.9882 57.2801 26.9882L57.2801 26.9882Z" fill="white"/>
<path d="M57.2803 21.5003H44.1097C43.3883 21.5017 42.6974 21.7902 42.1889 22.3017C41.6685 21.8027 40.9755 21.5245 40.2545 21.5245C39.5338 21.5245 38.8408 21.8027 38.3201 22.3017L28.9908 31.631L28.9912 31.6307C28.4793 32.1451 28.1919 32.8411 28.1919 33.5665C28.1919 34.292 28.4793 34.9879 28.9912 35.5024C28.4833 36.0096 28.1974 36.6971 28.1952 37.4148V50.5854C28.1952 51.313 28.4844 52.0108 28.9989 52.5257C29.5137 53.0402 30.2116 53.3294 30.9392 53.3294H44.6122L44.3652 53.5763C43.8607 54.089 43.5744 54.7777 43.567 55.4968V63.756C43.567 64.4836 43.8559 65.1814 44.3707 65.6963C44.8852 66.2108 45.5831 66.5 46.3107 66.5H52.8959C53.0415 66.5 53.1811 66.4419 53.284 66.339C53.3869 66.2361 53.445 66.0965 53.445 65.951V64.129C53.4479 63.699 53.6195 63.2875 53.9223 62.9821L61.4296 55.4722C61.9338 54.9592 62.219 54.2709 62.2253 53.5514V41.8051C62.2194 41.18 61.9978 40.5763 61.5976 40.0963C61.1974 39.6164 60.6436 39.2893 60.0303 39.171V24.244C60.0303 23.5153 59.7403 22.8167 59.2244 22.3018C58.7088 21.787 58.0095 21.4985 57.2808 21.5L57.2803 21.5003ZM29.7754 32.4017L39.1047 23.0724V23.0728C39.4159 22.7737 39.8308 22.6065 40.2627 22.6065C40.6941 22.6065 41.1093 22.7737 41.4206 23.0728L41.5934 23.2455C41.4504 23.5597 41.3729 23.8993 41.3655 24.2443V25.4405C41.055 25.7297 40.6445 25.8877 40.2204 25.8815C39.796 25.8756 39.3903 25.7058 39.0882 25.4078C38.8736 25.1932 38.526 25.1932 38.3117 25.4078C38.0971 25.622 38.0971 25.9697 38.3117 26.1843C38.7009 26.5815 39.204 26.8476 39.7512 26.9461C40.2984 27.0442 40.8624 26.97 41.3655 26.7329V40.1011L39.1019 37.8182C38.8884 37.6022 38.54 37.6003 38.3243 37.8138C38.1082 38.0277 38.1064 38.3761 38.3199 38.5918L41.0282 41.3163L39.8648 42.4824V42.4827C39.7619 42.5856 39.7038 42.7253 39.7038 42.8708C39.7038 43.0167 39.7619 43.1563 39.8648 43.2592C40.079 43.472 40.4245 43.472 40.6387 43.2592L41.3656 42.532V46.3185L33.4827 38.4301C33.615 38.1078 33.683 37.7631 33.683 37.4147C33.683 37.1116 33.4371 36.8661 33.134 36.8661C32.8312 36.8661 32.5853 37.1116 32.5853 37.4147C32.5853 37.4504 32.5688 37.4835 32.5662 37.5191L29.7756 34.7229C29.4691 34.4146 29.2967 33.9971 29.2967 33.5624C29.2967 33.1273 29.4691 32.7102 29.7756 32.4015L29.7754 32.4017ZM29.2925 50.5856V37.415C29.3113 36.995 29.4968 36.5999 29.8085 36.3173L32.0858 38.5946V38.595C31.7789 38.8938 31.3673 39.061 30.9389 39.0613C30.6357 39.0613 30.3902 39.3072 30.3902 39.61C30.3902 39.9132 30.6357 40.159 30.9389 40.159C31.6584 40.1564 32.3481 39.8716 32.8597 39.366L41.3408 47.8416H39.7191C39.4163 47.8416 39.1705 48.0875 39.1705 48.3906C39.1705 48.6934 39.4163 48.9393 39.7191 48.9393H41.3655V50.5856C41.3783 51.1868 41.5918 51.7664 41.9718 52.2319H30.9386C30.5021 52.2319 30.0831 52.0585 29.7744 51.7498C29.4658 51.4411 29.2923 51.0222 29.2923 50.5856H29.2925ZM44.1094 52.2319C43.6729 52.2319 43.2539 52.0585 42.9452 51.7498C42.6366 51.4411 42.4631 51.0222 42.4631 50.5856V24.2444C42.4638 23.942 42.5601 23.6473 42.7376 23.4022C43.0228 22.9123 43.5428 22.6077 44.1094 22.5981H57.28C57.7166 22.5981 58.1355 22.7716 58.4442 23.0803C58.7529 23.3889 58.9263 23.8079 58.9263 24.2444V50.5856C58.9263 51.0222 58.7529 51.4411 58.4442 51.7498C58.1355 52.0585 57.7166 52.2319 57.28 52.2319H53.4744L54.7228 50.9806C54.8823 51.121 55.1086 51.1567 55.3038 51.0721C55.4985 50.9876 55.6271 50.798 55.6338 50.5856C55.6308 50.2942 55.7131 50.0083 55.8697 49.7624C55.9079 49.6842 55.9248 49.5971 55.9193 49.51C56.2508 48.7283 56.2015 47.8372 55.7863 47.0964C55.371 46.3559 54.636 45.8491 53.7964 45.7246C52.9563 45.5996 52.1059 45.8708 51.4934 46.4588L45.7092 52.2319L44.1094 52.2319ZM51.8306 53.8783L52.3792 53.3296H55.809L53.5427 55.5959C53.1193 55.9869 52.4855 56.042 52.0007 55.7304C51.699 55.525 51.5053 55.1942 51.4741 54.8304C51.4465 54.4747 51.5792 54.1256 51.8361 53.8783L51.8306 53.8783ZM61.1213 41.8055V53.549C61.1187 53.9786 60.9486 54.3902 60.6469 54.6959L53.1396 62.2032C52.6346 62.7158 52.3487 63.4045 52.341 64.124V65.4025H46.3044C45.8678 65.4025 45.4492 65.2291 45.1402 64.9204C44.8315 64.6117 44.6581 64.1928 44.6581 63.7562V55.5026C44.6606 55.0719 44.8322 54.6588 45.1358 54.3531L52.2697 47.2191V47.2187C52.6883 46.8053 53.2957 46.6462 53.8632 46.802C54.4309 46.9575 54.8723 47.4043 55.0212 47.9735C55.1703 48.5428 55.0042 49.1484 54.5857 49.5622L51.7568 52.3911L51.0627 53.0827C50.5688 53.5589 50.3159 54.2322 50.3736 54.9153C50.4321 55.6054 50.7966 56.2327 51.367 56.6248C51.816 56.9184 52.3507 57.0525 52.8851 57.0059C53.4198 56.9592 53.9228 56.7339 54.3142 56.3668L57.0362 53.6448H57.0358C57.1266 53.5471 57.2081 53.4416 57.2802 53.3295C58.0078 53.3295 58.7056 53.0403 59.2205 52.5258C59.735 52.011 60.0242 51.3131 60.0242 50.5855V40.2683C60.3424 40.3811 60.6188 40.5887 60.815 40.8636C61.0112 41.1385 61.1185 41.467 61.1215 41.8051L61.1213 41.8055Z" fill="white"/>
<path d="M52.8897 33.5737C53.3266 33.5737 53.7452 33.7472 54.0539 34.0559C54.3626 34.3646 54.536 34.7831 54.536 35.2201V41.8054C54.536 42.1082 54.7819 42.354 55.085 42.354C55.3879 42.354 55.6337 42.1082 55.6337 41.8054V37.9637H57.28C57.5832 37.9637 57.8287 37.7182 57.8287 37.415C57.8287 37.1119 57.5832 36.8664 57.28 36.8664H55.6337V35.2201C55.6337 34.2396 55.1108 33.3338 54.2619 32.8435C53.4126 32.3537 52.3667 32.3537 51.5179 32.8435C50.669 33.3338 50.1461 34.2396 50.1461 35.2201V39.61C50.1461 40.1984 49.8322 40.7418 49.3229 41.0358C48.8136 41.3298 48.1859 41.3298 47.6766 41.0358C47.1673 40.7418 46.8534 40.1983 46.8534 39.61V33.0247C46.8534 32.7219 46.6076 32.4761 46.3044 32.4761C46.0016 32.4761 45.7558 32.7219 45.7558 33.0247V36.8664H44.1094C43.8063 36.8664 43.5608 37.1119 43.5608 37.415C43.5608 37.7182 43.8063 37.9637 44.1094 37.9637H45.7558V39.61C45.7558 40.5905 46.2787 41.4963 47.1276 41.9866C47.9768 42.4764 49.0227 42.4764 49.8716 41.9866C50.7205 41.4963 51.2434 40.5905 51.2434 39.61V35.2201C51.2434 34.7831 51.4168 34.3646 51.7255 34.0559C52.0346 33.7472 52.4531 33.5737 52.8897 33.5737Z" fill="white"/>
<path d="M32.1102 35.4938C32.3244 35.7066 32.6698 35.7066 32.8841 35.4938C33.3986 34.9793 33.6874 34.2814 33.6874 33.5539C33.6874 32.8266 33.3986 32.1288 32.8841 31.6139C32.6669 31.4181 32.334 31.4269 32.1274 31.6341C31.9209 31.8414 31.9136 32.174 32.1102 32.3908C32.4185 32.6995 32.5916 33.1177 32.5916 33.5538C32.5916 33.9904 32.4185 34.4086 32.1102 34.7173C32.0073 34.8202 31.9492 34.9598 31.9492 35.1057C31.9492 35.2512 32.0073 35.3909 32.1102 35.4938L32.1102 35.4938Z" fill="white"/>
<path d="M30.939 47.8413C30.6359 47.8413 30.3904 48.0872 30.3904 48.3903C30.3904 48.6931 30.6359 48.939 30.939 48.939C31.3756 48.939 31.7945 49.1124 32.1032 49.4211C32.4119 49.7298 32.5854 50.1487 32.5854 50.5853C32.5854 50.8885 32.8312 51.134 33.134 51.134C33.4372 51.134 33.683 50.8885 33.683 50.5853C33.683 49.8577 33.3938 49.1599 32.8793 48.645C32.3645 48.1305 31.6666 47.8413 30.939 47.8413L30.939 47.8413Z" fill="white"/>
<path d="M26 57.1707C26 57.3162 26.0577 57.4559 26.1606 57.5588C26.2635 57.6617 26.4031 57.7194 26.5486 57.7194H30.939C31.2421 57.7194 31.4876 57.4739 31.4876 57.1707C31.4876 56.8676 31.2421 56.6221 30.939 56.6221H26.5486C26.2458 56.6221 26 56.8676 26 57.1707Z" fill="white"/>
<path d="M40.2686 61.5612C40.2686 61.4157 40.2105 61.2761 40.1076 61.1732C40.0047 61.0703 39.8651 61.0122 39.7195 61.0122H30.9393C30.6361 61.0122 30.3906 61.2581 30.3906 61.5612C30.3906 61.864 30.6361 62.1099 30.9393 62.1099H39.7195C39.8651 62.1099 40.0047 62.0522 40.1076 61.9493C40.2105 61.8464 40.2686 61.7067 40.2686 61.5612Z" fill="white"/>
<path d="M30.939 65.4021C30.6359 65.4021 30.3904 65.6479 30.3904 65.9507C30.3904 66.2539 30.6359 66.4998 30.939 66.4998H35.3294C35.6322 66.4998 35.878 66.2539 35.878 65.9507C35.878 65.6479 35.6322 65.4021 35.3294 65.4021H30.939Z" fill="white"/>
</svg>
