<svg width="88" height="88" viewBox="0 0 88 88" fill="none" xmlns="http://www.w3.org/2000/svg">
<circle cx="44" cy="44" r="44" fill="#015BBB"/>
<path d="M37.1532 59.8715H19.7956C19.3617 59.8715 19 59.5098 19 59.0517V26.7956C19 26.3617 19.3617 26 19.7956 26H68.1802C68.6382 26 69 26.3617 69 26.7956V59.0517C69 59.5098 68.6383 59.8715 68.1802 59.8715H50.8464C50.5571 60.6429 50.1472 61.3663 49.641 61.9931V69.7558C49.641 70.1896 49.2793 70.5513 48.8212 70.5513C48.6767 70.5513 48.5561 70.5271 48.4355 70.455L44.1202 68.3334L39.4913 70.479C39.1056 70.6719 38.6233 70.5032 38.4306 70.0933C38.3825 69.997 38.3582 69.8764 38.3582 69.7558V61.9932C37.8277 61.3663 37.4182 60.6432 37.1528 59.8716L37.1532 59.8715ZM48.0261 63.4876C46.8688 64.2589 45.495 64.6931 44.0002 64.6931C42.5054 64.6931 41.1073 64.2592 39.9742 63.4876V68.5021L43.7351 66.718C43.952 66.5974 44.2414 66.5974 44.4825 66.718L48.0265 68.4536V63.4872L48.0261 63.4876ZM51.2084 58.2561H67.3846V27.615H20.615V58.2561H36.7912C36.743 57.9911 36.743 57.7257 36.743 57.4363C36.743 56.8819 36.7912 56.3514 36.9118 55.8209H27.871C27.4129 55.8209 27.0512 55.4592 27.0512 55.0254C27.0512 54.1335 26.6894 53.3379 26.1111 52.735L26.0869 52.7108C25.5082 52.1564 24.7127 51.7946 23.8447 51.7946C23.3866 51.7946 23.0248 51.4329 23.0248 50.999V34.8706C23.0248 34.4125 23.3866 34.0507 23.8447 34.0507C24.7366 34.0507 25.5321 33.689 26.1107 33.1107C26.6894 32.5321 27.0508 31.7365 27.0508 30.8446C27.0508 30.3865 27.4125 30.0248 27.8706 30.0248H60.1268C60.5606 30.0248 60.9223 30.3865 60.9223 30.8446C60.9223 31.7365 61.284 32.5321 61.8624 33.1107C62.441 33.6893 63.2605 34.0507 64.1527 34.0507C64.5865 34.0507 64.9483 34.4125 64.9483 34.8706V50.999C64.9483 51.4329 64.5865 51.7946 64.1527 51.7946C63.2608 51.7946 62.441 52.1563 61.8624 52.7346C61.2837 53.3133 60.9223 54.1328 60.9223 55.025C60.9223 55.4588 60.5606 55.8205 60.1268 55.8205H51.0621C51.1827 56.351 51.2551 56.8812 51.2551 57.4359C51.2551 57.7253 51.2308 57.9904 51.2069 58.2558L51.2084 58.2561ZM44.0002 50.1796C46.0012 50.1796 47.8093 50.9994 49.1111 52.3251H49.1353C49.6897 52.8795 50.1478 53.5064 50.4853 54.2296H59.3813C59.55 53.217 60.0323 52.3009 60.7313 51.6017C61.4305 50.9025 62.3224 50.4205 63.3349 50.2517V35.6181C62.3224 35.4494 61.4305 34.9431 60.7313 34.2681V34.2439C60.0321 33.5689 59.55 32.6528 59.3813 31.6403H28.6192C28.4505 32.6528 27.9442 33.5689 27.2692 34.2681C26.57 34.9431 25.6538 35.4493 24.6414 35.6181V50.2517C25.63 50.4204 26.5219 50.8785 27.2211 51.5535L27.2693 51.6016C27.9443 52.3009 28.4505 53.217 28.6193 54.2295H37.4914C37.8531 53.5063 38.3112 52.8795 38.8656 52.325C40.1916 50.999 41.9997 50.1795 44.0007 50.1795L44.0002 50.1796ZM47.978 53.4582C46.9655 52.4215 45.5432 51.7947 44.0002 51.7947C42.4333 51.7947 41.0109 52.4215 39.9981 53.4582C38.9856 54.4707 38.3589 55.893 38.3589 57.436C38.3589 59.0029 38.9857 60.4252 39.9981 61.4381C41.0106 62.4506 42.4329 63.0773 44.0002 63.0773C45.5432 63.0773 46.9655 62.4505 47.978 61.4381C49.0147 60.4256 49.6415 59.0033 49.6415 57.436C49.6415 55.893 49.0147 54.4707 47.978 53.4582ZM31.8981 47.7686C31.4643 47.7686 31.1025 47.4069 31.1025 46.9731C31.1025 46.515 31.4643 46.1532 31.8981 46.1532H56.0785C56.5365 46.1532 56.8983 46.515 56.8983 46.9731C56.8983 47.4069 56.5365 47.7686 56.0785 47.7686H31.8981ZM31.8981 43.7427C31.4643 43.7427 31.1025 43.3809 31.1025 42.9228C31.1025 42.489 31.4643 42.1273 31.8981 42.1273H56.0785C56.5365 42.1273 56.8983 42.489 56.8983 42.9228C56.8983 43.3809 56.5365 43.7427 56.0785 43.7427H31.8981ZM35.924 35.6661C35.4902 35.6661 35.1285 35.3044 35.1285 34.8705C35.1285 34.4125 35.4902 34.0507 35.924 34.0507H52.0525C52.5106 34.0507 52.8723 34.4124 52.8723 34.8705C52.8723 35.3044 52.5106 35.6661 52.0525 35.6661H35.924Z" fill="white"/>
</svg>
