<svg width="114" height="120" viewBox="0 0 114 120" fill="none" xmlns="http://www.w3.org/2000/svg">
<path d="M113.5 54.1935C113.5 102.581 56.358 109.032 56.358 120C56.358 109.032 0.5 103.226 0.5 54.1935C0.5 22.838 25.7959 0 57 0C88.2041 0 113.5 22.838 113.5 54.1935Z" fill="#015BBB"/>
<path d="M57.1563 63.5715C56.7238 63.5715 56.3735 63.924 56.3735 64.3587C56.3735 64.7928 56.7238 65.1453 57.1563 65.1453C57.7792 65.1453 58.3769 65.3939 58.8174 65.8365C59.2578 66.279 59.5053 66.8797 59.5053 67.5056C59.5053 67.9402 59.856 68.2922 60.288 68.2922C60.7206 68.2922 61.0714 67.9402 61.0714 67.5056C61.0714 66.4624 60.6587 65.4619 59.9247 64.7238C59.1901 63.9862 58.1944 63.5715 57.1563 63.5715L57.1563 63.5715Z" fill="white"/>
<path d="M57.1563 33.6747C58.1945 33.6747 59.1901 33.2601 59.9247 32.5225C60.6587 31.7844 61.0714 30.7838 61.0714 29.7407C61.0714 29.306 60.7206 28.9541 60.288 28.9541C59.856 28.9541 59.5053 29.306 59.5053 29.7407C59.5053 30.3666 59.2578 30.9672 58.8174 31.4098C58.3769 31.8523 57.7792 32.101 57.1563 32.101C56.7238 32.101 56.3735 32.4535 56.3735 32.8876C56.3735 33.3223 56.7238 33.6747 57.1563 33.6747L57.1563 33.6747Z" fill="white"/>
<path d="M75.948 33.6747C76.3806 33.6747 76.7308 33.3223 76.7308 32.8876C76.7308 32.4535 76.3805 32.101 75.948 32.101C75.3251 32.101 74.7274 31.8523 74.287 31.4098C73.8466 30.9672 73.5991 30.3666 73.5991 29.7407C73.5991 29.306 73.2483 28.9541 72.8163 28.9541C72.3837 28.9541 72.033 29.306 72.033 29.7407C72.033 30.7839 72.4456 31.7843 73.1796 32.5225C73.9142 33.2601 74.9099 33.6747 75.948 33.6747L75.948 33.6747Z" fill="white"/>
<path d="M75.9479 25.8068H57.1566C56.1273 25.8089 55.1416 26.2224 54.416 26.9558C53.6736 26.2404 52.6848 25.8415 51.6561 25.8415C50.6279 25.8415 49.6391 26.2404 48.8961 26.9558L35.5854 40.3312L35.5859 40.3306C34.8556 41.0682 34.4456 42.0661 34.4456 43.1061C34.4456 44.1461 34.8556 45.1439 35.5859 45.8816C34.8613 46.6086 34.4534 47.5943 34.4503 48.6233V67.5059C34.4503 68.5491 34.8629 69.5495 35.597 70.2877C36.3315 71.0253 37.3272 71.4399 38.3653 71.4399H57.8735L57.5211 71.794C56.8012 72.5289 56.3928 73.5163 56.3823 74.5473V86.3884C56.3823 87.4316 56.7944 88.4321 57.529 89.1702C58.263 89.9079 59.2587 90.3225 60.2968 90.3225H69.6925C69.9001 90.3225 70.0994 90.2392 70.2462 90.0917C70.393 89.9442 70.4758 89.744 70.4758 89.5354V86.9232C70.48 86.3068 70.7249 85.7167 71.1569 85.279L81.8681 74.5121C82.5875 73.7766 82.9943 72.7898 83.0032 71.7582V54.9177C82.9949 54.0215 82.6787 53.1559 82.1077 52.4678C81.5367 51.7797 80.7466 51.3108 79.8715 51.1412V29.7405C79.8715 28.6957 79.4579 27.6942 78.7217 26.956C77.9861 26.2179 76.9884 25.8043 75.9487 25.8064L75.9479 25.8068ZM36.7048 41.4361L50.0156 28.0608V28.0613C50.4597 27.6325 51.0516 27.3927 51.6677 27.3927C52.2833 27.3927 52.8758 27.6325 53.3199 28.0613L53.5663 28.3089C53.3624 28.7594 53.2517 29.2462 53.2412 29.7409V31.4559C52.7982 31.8705 52.2125 32.097 51.6075 32.0881C51.0019 32.0797 50.423 31.8362 49.9921 31.409C49.6859 31.1013 49.1899 31.1013 48.8842 31.409C48.578 31.7161 48.578 32.2145 48.8842 32.5222C49.4395 33.0917 50.1572 33.4732 50.938 33.6144C51.7187 33.7551 52.5234 33.6486 53.2413 33.3088V52.4746L50.0116 49.2017C49.7069 48.8919 49.2099 48.8893 48.9021 49.1954C48.5938 49.502 48.5912 50.0015 48.8958 50.3108L52.76 54.2169L51.1001 55.8887V55.8892C50.9532 56.0367 50.8704 56.2369 50.8704 56.4456C50.8704 56.6547 50.9533 56.8549 51.1001 57.0024C51.4057 57.3075 51.8986 57.3075 52.2043 57.0024L53.2414 55.9598V61.3885L41.9943 50.0789C42.1831 49.6169 42.2801 49.1227 42.2801 48.6232C42.2801 48.1886 41.9293 47.8366 41.4968 47.8366C41.0647 47.8366 40.714 48.1886 40.714 48.6232C40.714 48.6743 40.6904 48.7218 40.6867 48.7729L36.7051 44.764C36.2678 44.3219 36.0219 43.7234 36.0219 43.1001C36.0219 42.4763 36.2678 41.8784 36.7051 41.4358L36.7048 41.4361ZM36.0159 67.5062V48.6236C36.0426 48.0214 36.3074 47.4551 36.752 47.0499L40.0012 50.3148V50.3154C39.5634 50.7437 38.9762 50.9834 38.3649 50.9839C37.9323 50.9839 37.5821 51.3364 37.5821 51.7705C37.5821 52.2052 37.9323 52.5577 38.3649 52.5577C39.3915 52.554 40.3755 52.1457 41.1055 51.4207L53.206 63.5722H50.8923C50.4602 63.5722 50.1095 63.9246 50.1095 64.3593C50.1095 64.7934 50.4602 65.1459 50.8923 65.1459H53.2412V67.5062C53.2595 68.3681 53.5642 69.199 54.1063 69.8665H38.3645C37.7416 69.8665 37.1439 69.6178 36.7035 69.1753C36.2631 68.7327 36.0156 68.1321 36.0156 67.5062H36.0159ZM57.1562 69.8665C56.5333 69.8665 55.9356 69.6178 55.4952 69.1753C55.0547 68.7327 54.8073 68.1321 54.8073 67.5062V29.7411C54.8083 29.3075 54.9457 28.8849 55.1989 28.5335C55.6058 27.8312 56.3477 27.3945 57.1562 27.3808H75.9476C76.5704 27.3808 77.1682 27.6294 77.6086 28.072C78.049 28.5145 78.2965 29.1152 78.2965 29.7411V67.5062C78.2965 68.1321 78.049 68.7327 77.6086 69.1753C77.1682 69.6178 76.5704 69.8665 75.9476 69.8665H70.5178L72.2989 68.0725C72.5265 68.2738 72.8495 68.3249 73.1279 68.2037C73.4058 68.0825 73.5893 67.8107 73.5987 67.5062C73.5945 67.0884 73.712 66.6785 73.9353 66.326C73.9899 66.2138 74.014 66.0889 74.0061 65.9641C74.479 64.8434 74.4088 63.5658 73.8163 62.5037C73.2238 61.4421 72.1751 60.7155 70.9772 60.5369C69.7786 60.3578 68.5653 60.7466 67.6914 61.5896L59.4388 69.8665L57.1562 69.8665ZM68.1725 72.2268L68.9553 71.4402H73.8487L70.6152 74.6894C70.0112 75.25 69.1068 75.329 68.4152 74.8822C67.9847 74.5877 67.7084 74.1135 67.6638 73.5919C67.6245 73.082 67.8138 72.5814 68.1803 72.2269L68.1725 72.2268ZM81.4282 54.9183V71.7548C81.4245 72.3707 81.1818 72.9607 80.7513 73.399L70.0401 84.1622C69.3197 84.8972 68.9118 85.8846 68.9007 86.9161V88.7491H60.2879C59.665 88.7491 59.0678 88.5004 58.6268 88.0578C58.1864 87.6153 57.9389 87.0147 57.9389 86.3888V74.5556C57.9426 73.9381 58.1875 73.3459 58.6205 72.9076L68.799 62.6797V62.6792C69.3962 62.0864 70.2629 61.8583 71.0725 62.0817C71.8826 62.3045 72.5123 62.9452 72.7247 63.7613C72.9375 64.5774 72.7006 65.4456 72.1034 66.0389L68.0672 70.0946L67.0768 71.0862C66.3721 71.769 66.0114 72.7342 66.0937 73.7136C66.1771 74.703 66.6972 75.6024 67.511 76.1645C68.1517 76.5855 68.9146 76.7778 69.677 76.7109C70.4399 76.644 71.1576 76.321 71.716 75.7947L75.5996 71.8922H75.5991C75.7286 71.752 75.845 71.6008 75.9478 71.4401C76.9859 71.4401 77.9815 71.0255 78.7161 70.2879C79.4502 69.5498 79.8628 68.5492 79.8628 67.5061V52.7143C80.3169 52.876 80.7112 53.1737 80.9911 53.5678C81.2711 53.9619 81.4242 54.4329 81.4284 54.9176L81.4282 54.9183Z" fill="white"/>
<path d="M69.6835 43.1166C70.3069 43.1166 70.9041 43.3653 71.3445 43.8078C71.7849 44.2504 72.0324 44.8505 72.0324 45.4769V54.9182C72.0324 55.3523 72.3832 55.7048 72.8157 55.7048C73.2478 55.7048 73.5985 55.3523 73.5985 54.9182V49.4104H75.9474C76.38 49.4104 76.7302 49.0585 76.7302 48.6238C76.7302 48.1892 76.38 47.8372 75.9474 47.8372H73.5985V45.4769C73.5985 44.0712 72.8524 42.7725 71.6413 42.0697C70.4296 41.3674 68.9373 41.3674 67.7262 42.0697C66.5151 42.7725 65.769 44.0712 65.769 45.4769V51.7707C65.769 52.6142 65.3212 53.3934 64.5945 53.8149C63.8678 54.2364 62.9723 54.2364 62.2456 53.8149C61.5189 53.3934 61.0711 52.6142 61.0711 51.7707V42.3294C61.0711 41.8953 60.7204 41.5428 60.2878 41.5428C59.8558 41.5428 59.505 41.8953 59.505 42.3294V47.8372H57.1561C56.7235 47.8372 56.3733 48.1892 56.3733 48.6238C56.3733 49.0585 56.7235 49.4104 57.1561 49.4104H59.505V51.7707C59.505 53.1764 60.2511 54.4751 61.4623 55.1779C62.6739 55.8802 64.1662 55.8802 65.3773 55.1779C66.5885 54.4751 67.3346 53.1764 67.3346 51.7707V45.4769C67.3346 44.8505 67.582 44.2504 68.0225 43.8078C68.4634 43.3653 69.0606 43.1166 69.6835 43.1166Z" fill="white"/>
<path d="M40.0363 45.8692C40.342 46.1742 40.8348 46.1742 41.1405 45.8692C41.8745 45.1316 42.2866 44.131 42.2866 43.0879C42.2866 42.0453 41.8745 41.0448 41.1405 40.3067C40.8306 40.0258 40.3556 40.0385 40.0609 40.3356C39.7663 40.6328 39.7558 41.1096 40.0363 41.4204C40.4762 41.863 40.7231 42.4626 40.7231 43.0879C40.7231 43.7138 40.4762 44.3134 40.0363 44.7559C39.8895 44.9034 39.8066 45.1036 39.8066 45.3128C39.8066 45.5214 39.8895 45.7216 40.0363 45.8692L40.0363 45.8692Z" fill="white"/>
<path d="M38.3651 63.5715C37.9325 63.5715 37.5823 63.924 37.5823 64.3587C37.5823 64.7928 37.9325 65.1453 38.3651 65.1453C38.988 65.1453 39.5857 65.3939 40.0261 65.8365C40.4665 66.279 40.714 66.8797 40.714 67.5056C40.714 67.9402 41.0648 68.2922 41.4968 68.2922C41.9293 68.2922 42.2801 67.9402 42.2801 67.5056C42.2801 66.4624 41.8675 65.4619 41.1334 64.7238C40.3989 63.9862 39.4031 63.5715 38.3651 63.5715L38.3651 63.5715Z" fill="white"/>
<path d="M31.3181 76.9472C31.3181 77.1559 31.4004 77.3561 31.5472 77.5036C31.694 77.6511 31.8933 77.7338 32.1009 77.7338H38.3649C38.7974 77.7338 39.1477 77.3819 39.1477 76.9472C39.1477 76.5126 38.7974 76.1606 38.3649 76.1606H32.1009C31.6689 76.1606 31.3181 76.5126 31.3181 76.9472Z" fill="white"/>
<path d="M51.676 83.242C51.676 83.0333 51.5932 82.8331 51.4464 82.6856C51.2996 82.5381 51.1003 82.4548 50.8927 82.4548H38.3653C37.9328 82.4548 37.5825 82.8073 37.5825 83.242C37.5825 83.6761 37.9328 84.0285 38.3653 84.0285H50.8927C51.1003 84.0285 51.2996 83.9458 51.4464 83.7983C51.5932 83.6508 51.676 83.4506 51.676 83.242Z" fill="white"/>
<path d="M38.3651 88.7485C37.9325 88.7485 37.5823 89.101 37.5823 89.5351C37.5823 89.9698 37.9325 90.3222 38.3651 90.3222H44.629C45.0611 90.3222 45.4118 89.9698 45.4118 89.5351C45.4118 89.101 45.0611 88.7485 44.629 88.7485H38.3651Z" fill="white"/>
</svg>
