<svg width="114" height="120" viewBox="0 0 114 120" fill="none" xmlns="http://www.w3.org/2000/svg">
<path d="M113.5 54.1935C113.5 102.581 56.358 109.032 56.358 120C56.358 109.032 0.5 103.226 0.5 54.1935C0.5 22.838 25.7959 0 57 0C88.2041 0 113.5 22.838 113.5 54.1935Z" fill="#015BBB"/>
<path d="M42.5908 78.726C43.2338 78.726 43.6627 78.2915 43.6627 77.64V75.4678C43.6627 74.8163 43.2339 74.3817 42.5908 74.3817C41.9477 74.3817 41.5188 74.8162 41.5188 75.4678V77.64C41.5188 78.292 41.9477 78.726 42.5908 78.726Z" fill="white"/>
<path d="M41.5183 84.0486C41.5183 84.7002 41.9472 85.1347 42.5903 85.1347C43.2334 85.1347 43.6623 84.7002 43.6623 84.0486V81.8765C43.6623 81.2249 43.2334 80.7904 42.5903 80.7904C41.9472 80.7904 41.5183 81.2249 41.5183 81.8765V84.0486Z" fill="white"/>
<path d="M90.6177 35.6077C89.7599 34.7386 79.8974 23.2258 78.9327 23.2258H46.1282C44.4131 23.2258 43.0194 24.6379 43.0194 26.3755V39.3005C42.5905 39.0835 42.0546 38.9745 41.7327 38.866H41.1967C39.4817 38.9745 38.088 40.1696 37.659 41.7986H24.4736C23.2945 41.7986 22.3296 42.7762 22.3296 43.9708V49.7272C22.3296 50.9218 23.2945 51.8994 24.4736 51.8994H31.4418C31.656 56.2438 30.2627 53.637 35.7297 62.2175C39.1603 67.5394 39.1603 67.5394 39.1603 68.1914V69.604H38.4101C37.231 69.604 36.2661 70.5816 36.2661 71.7762V86.6559C36.2661 87.3074 36.695 87.742 37.3381 87.742C37.9812 87.742 38.4101 87.3074 38.4101 86.6559V71.7762H57.2773V86.6559C57.2773 87.3074 57.7062 87.742 58.3493 87.742C58.9924 87.742 59.4213 87.3074 59.4213 86.6559V82.9631H87.8302C89.5452 82.9631 90.9389 81.551 90.9389 79.8134V36.3687C90.9394 36.0426 90.8323 35.7166 90.6176 35.6081L90.6177 35.6077ZM87.4018 35.2822H80.0046V27.0272L87.4018 35.2822ZM37.4458 49.6191H30.7994V43.9713H37.4458V49.6191ZM24.4738 43.9713H28.6546V49.6191H24.4738V43.9713ZM37.4458 60.9145C32.5144 53.3114 33.5863 55.7011 33.4792 51.7909H37.4458V54.0715C37.4458 54.7231 37.8747 55.1576 38.5178 55.1576C39.1608 55.1576 39.5897 54.7231 39.5897 54.0715V42.7758C39.5897 41.7982 40.3399 41.0382 41.3047 41.0382H41.4118C41.7336 41.1467 42.9127 41.3642 42.9127 42.7758V46.6861C42.9127 47.3376 43.3416 47.7721 43.9847 47.7721C44.6278 47.7721 45.0567 47.3376 45.0567 46.6861V42.7758V40.6036C45.0567 39.6261 45.8068 38.866 46.7717 38.866H46.8788C49.0227 39.1921 48.2725 41.3642 48.3796 41.6902V44.5143C48.3796 45.1658 48.8085 45.6004 49.4516 45.6004C50.0947 45.6004 50.5236 45.1658 50.5236 44.5143V41.6902C50.5236 40.7126 51.2738 39.9526 52.2386 39.9526H52.3457C52.6675 40.0611 53.8466 40.2786 53.8466 41.6902C53.8466 44.4053 53.7395 44.5143 53.9537 44.9484C54.1679 45.3829 54.4897 45.5999 54.9185 45.5999C56.9554 45.5999 55.1327 42.8847 56.6336 41.5811C56.9553 41.255 57.3837 41.1465 57.8126 41.1465C58.5628 41.1465 59.4206 41.7981 59.4206 42.8841C59.2064 58.5242 61.0286 50.3786 54.5962 66.2367C54.0602 67.4313 54.2744 68.3003 54.2744 69.7124H41.1976C41.1976 66.5628 41.7341 67.5402 37.4458 60.9148L37.4458 60.9145ZM88.7966 79.8136C88.7966 80.3567 88.3677 80.7912 87.8318 80.7912L59.3154 80.7907V71.7761C59.3154 69.2779 56.528 69.7125 56.4209 69.6039C56.528 65.3681 55.5631 70.1469 61.1376 55.8097C61.7807 54.2891 61.4594 53.3115 61.5665 51.7909H73.4663C73.5734 51.7909 73.7881 51.7909 73.8952 51.6824L82.3643 47.7721C82.7931 47.5551 83.0073 47.2291 83.0073 46.7945C83.0073 46.36 82.7931 46.0345 82.3643 45.817C81.5065 45.3825 85.473 47.229 73.8952 41.9067C73.7881 41.7982 73.5734 41.7982 73.4663 41.7982H61.567C60.9239 39.1916 57.9222 37.8879 55.6707 39.626C54.5987 37.8884 52.133 37.0194 50.0962 38.54C49.1313 36.9108 46.9874 36.1503 45.1647 37.1279V26.3752C45.1647 25.8321 45.5936 25.3976 46.1296 25.3976H77.8614V36.3673C77.8614 37.0188 78.2903 37.4534 78.9334 37.4534L88.7962 37.4539L88.7966 79.8136ZM79.4698 46.7951L74.6454 49.0757L74.6459 44.623L79.4698 46.7951ZM72.5015 49.6193H61.6743V43.9714H72.5015V49.6193Z" fill="white"/>
<path d="M55.026 30.5024H52.882C52.239 30.5024 51.8101 30.937 51.8101 31.5885C51.8101 32.2401 52.2389 32.6746 52.882 32.6746H55.026C55.6691 32.6746 56.098 32.2401 56.098 31.5885C56.098 30.937 55.6691 30.5024 55.026 30.5024Z" fill="white"/>
<path d="M62.5309 30.5024H60.3869C59.7438 30.5024 59.3149 30.937 59.3149 31.5885C59.3149 32.2401 59.7438 32.6746 60.3869 32.6746H62.5309C63.174 32.6746 63.6028 32.2401 63.6028 31.5885C63.6028 30.937 63.174 30.5024 62.5309 30.5024Z" fill="white"/>
<path d="M70.0348 30.5024H67.8908C67.2477 30.5024 66.8188 30.937 66.8188 31.5885C66.8188 32.2401 67.2477 32.6746 67.8908 32.6746H70.0348C70.6779 32.6746 71.1068 32.2401 71.1068 31.5885C71.1068 30.937 70.6779 30.5024 70.0348 30.5024Z" fill="white"/>
<path d="M71.2134 58.959C71.2134 59.6105 71.6423 60.0451 72.2853 60.0451H83.2202C83.8633 60.0451 84.2922 59.6106 84.2922 58.959C84.2922 58.3075 83.8633 57.8729 83.2202 57.8729H72.2853C71.7494 57.8729 71.2134 58.3075 71.2134 58.959Z" fill="white"/>
<path d="M83.2214 65.8024H67.998C67.3549 65.8024 66.926 66.2369 66.926 66.8884C66.926 67.54 67.3549 67.9745 67.998 67.9745H83.2202C83.8632 67.9745 84.2921 67.54 84.2921 66.8884C84.2926 66.2369 83.7566 65.8024 83.2207 65.8024H83.2214Z" fill="white"/>
<path d="M83.2211 72.6443H64.7822C64.1391 72.6443 63.7102 73.0788 63.7102 73.7304C63.7102 74.3819 64.1391 74.8164 64.7822 74.8164H83.2211C83.8642 74.8164 84.2931 74.3819 84.2931 73.7304C84.2936 73.0783 83.7576 72.6443 83.2216 72.6443H83.2211Z" fill="white"/>
</svg>
