<svg width="114" height="120" viewBox="0 0 114 120" fill="none" xmlns="http://www.w3.org/2000/svg">
<path d="M113.5 54.1935C113.5 102.581 56.358 109.032 56.358 120C56.358 109.032 0.5 103.226 0.5 54.1935C0.5 22.838 25.7959 0 57 0C88.2041 0 113.5 22.838 113.5 54.1935Z" fill="#015BBB"/>
<path d="M46.8363 31.7376C49.3217 30.428 52.6026 30.9316 54.5914 32.9466C54.79 33.1479 55.0885 33.249 55.2871 33.249C55.5855 33.249 55.7842 33.1483 55.9828 32.9466C56.3806 32.5436 56.3806 31.9394 55.9828 31.5364C53.3977 28.9173 49.1226 28.2123 45.8417 30.0255C45.3446 30.3278 45.146 30.9321 45.4439 31.4357C45.7428 31.8382 46.3392 32.04 46.8363 31.7376H46.8363Z" fill="white"/>
<path d="M83.1244 76.6628H76.364L76.3635 38.4859C76.3635 36.7733 75.071 35.4642 73.3811 35.4642H63.737C63.3392 32.3414 62.0466 29.521 59.8597 27.3052C54.4912 21.866 45.7424 21.866 40.3735 27.3052C38.186 29.5214 36.7941 32.3418 36.4961 35.4642H33.0166C31.3263 35.4642 30.0342 36.7738 30.0342 38.4859V82.8064C30.0342 85.5262 32.2216 87.742 34.9056 87.742H79.3466C82.031 87.742 84.218 85.5258 84.218 82.8064V77.6696C84.1187 77.0648 83.7209 76.6623 83.1245 76.6623L83.1244 76.6628ZM41.7651 28.8164C46.3386 24.1828 53.7955 24.1828 58.3688 28.8164C62.9423 33.4501 62.9423 41.0051 58.3688 45.7395C53.7954 50.3731 46.3385 50.3731 41.7651 45.7395C39.5777 43.5233 38.2856 40.5016 38.2856 37.2782C38.2856 34.0548 39.4785 31.0326 41.7651 28.8169V28.8164ZM59.7609 47.0478C60.1586 46.6448 60.4566 46.2418 60.755 45.8388L67.6153 52.7893C68.2117 53.3935 68.2117 54.4007 67.6153 55.0055C67.0189 55.6097 66.0247 55.6097 65.4279 55.0055L58.5676 48.055C58.9654 47.7531 59.3631 47.4507 59.7609 47.0477L59.7609 47.0478ZM32.022 82.8064V38.4859C32.022 37.8817 32.4198 37.4787 33.0162 37.4787H36.2971C36.3964 41.1051 37.7884 44.4292 40.2738 47.0478C44.748 51.5809 51.6078 52.3864 56.8775 49.264L64.0362 56.5164C65.4281 57.9267 67.7149 57.9267 69.1067 56.5164C70.4986 55.1062 70.4986 52.7893 69.1067 51.3792L62.0478 44.2275C63.2411 42.213 63.8374 39.8962 63.9368 37.5793H73.4811C74.0775 37.5793 74.4752 37.9823 74.4752 38.5866V82.8062C74.4752 83.9141 74.873 84.9212 75.4694 85.7272L34.9057 85.7277C33.3147 85.7277 32.0227 84.4181 32.0227 82.8062L32.022 82.8064ZM82.1296 82.8064C82.1296 84.4179 80.837 85.7275 79.2465 85.7275C77.656 85.7275 76.3634 84.4179 76.3634 82.8064V78.6769H82.1297L82.1296 82.8064Z" fill="white"/>
<path d="M38.2862 58.8338H58.1708C58.7672 58.8338 59.1649 58.4308 59.1649 57.8266C59.1649 57.2223 58.7672 56.8193 58.1708 56.8193H38.2862C37.6898 56.8193 37.292 57.2223 37.292 57.8266C37.292 58.4308 37.6897 58.8338 38.2862 58.8338Z" fill="white"/>
<path d="M38.2862 65.8843H62.1477C62.7441 65.8843 63.1418 65.4814 63.1418 64.8771C63.1418 64.2729 62.7441 63.8699 62.1477 63.8699H38.2862C37.6898 63.8699 37.292 64.2729 37.292 64.8771C37.292 65.4814 37.6897 65.8843 38.2862 65.8843Z" fill="white"/>
<path d="M68.1116 70.9218H38.2847C37.6883 70.9218 37.2905 71.3247 37.2905 71.929C37.2905 72.5332 37.6883 72.9362 38.2847 72.9362H68.1116C68.708 72.9362 69.1057 72.5332 69.1057 71.929C69.1057 71.4258 68.6087 70.9218 68.1116 70.9218Z" fill="white"/>
<path d="M68.1116 77.9722H38.2847C37.6883 77.9722 37.2905 78.3752 37.2905 78.9794C37.2905 79.5837 37.6883 79.9866 38.2847 79.9866H68.1116C68.708 79.9866 69.1057 79.5837 69.1057 78.9794C69.1057 78.4758 68.6087 77.9722 68.1116 77.9722Z" fill="white"/>
<path d="M42.064 38.1844H44.0523C44.6487 38.1844 45.0465 37.7814 45.0465 37.1772C45.0465 36.5729 44.6487 36.1699 44.0523 36.1699H42.064C41.4676 36.1699 41.0698 36.5729 41.0698 37.1772C41.0698 37.7814 41.5669 38.1844 42.064 38.1844Z" fill="white"/>
<path d="M51.0111 36.1698H49.0227C48.4263 36.1698 48.0286 36.5728 48.0286 37.177C48.0286 37.7813 48.4263 38.1843 49.0227 38.1843H51.0111C51.6075 38.1843 52.0052 37.7813 52.0052 37.177C52.0052 36.6734 51.6075 36.1698 51.0111 36.1698Z" fill="white"/>
<path d="M54.9883 37.1766C54.9883 37.7808 55.386 38.1838 55.9824 38.1838H57.9708C58.5672 38.1838 58.9649 37.7808 58.9649 37.1766C58.9649 36.5723 58.5672 36.1693 57.9708 36.1693H55.9824C55.4854 36.1693 54.9883 36.6729 54.9883 37.1766Z" fill="white"/>
</svg>
