<svg width="35" height="35" viewBox="0 0 35 35" fill="none" xmlns="http://www.w3.org/2000/svg">
<path d="M17.5 35C27.165 35 35 27.165 35 17.5C35 7.83504 27.165 0 17.5 0C7.83504 0 0 7.83504 0 17.5C0 27.165 7.83504 35 17.5 35Z" fill="#2DA5D8"/>
<path d="M6.51736 18.356C8.56309 17.2292 10.8467 16.2887 12.9804 15.3434C16.6512 13.7951 20.3365 12.2736 24.059 10.8571C24.7833 10.6158 26.0847 10.3798 26.2123 11.4531C26.1424 12.9724 25.855 14.4828 25.6578 15.9932C25.1574 19.3147 24.579 22.6248 24.015 25.9354C23.8207 27.0381 22.4393 27.6089 21.5554 26.9033C19.4312 25.4684 17.2906 24.0476 15.1935 22.5794C14.5066 21.8814 15.1436 20.879 15.7571 20.3806C17.5067 18.6564 19.3621 17.1915 21.0202 15.3782C21.4675 14.2981 20.146 15.2084 19.7101 15.4873C17.3149 17.1378 14.9784 18.8891 12.4531 20.3397C11.1632 21.0498 9.65983 20.443 8.37052 20.0468C7.21448 19.5681 5.52047 19.0859 6.51724 18.3561L6.51736 18.356Z" fill="white"/>
</svg>
