<svg width="88" height="89" viewBox="0 0 88 89" fill="none" xmlns="http://www.w3.org/2000/svg">
<circle cx="44" cy="44.5" r="44" fill="#015BBB"/>
<path d="M44.4999 22.5005C40.0495 22.5005 35.6994 23.8201 31.9993 26.2928C28.299 28.7652 25.4153 32.2797 23.7122 36.3914C22.0094 40.503 21.564 45.0274 22.4329 49.3919C23.3014 53.7565 25.4446 57.7654 28.5921 60.9119C31.7391 64.0583 35.7487 66.2007 40.113 67.0682C44.478 67.936 49.0021 67.4895 53.1135 65.7857C57.2248 64.082 60.7383 61.1975 63.2102 57.4965C65.6819 53.796 67.0008 49.4455 66.9997 44.995C66.993 39.03 64.6202 33.3116 60.4019 29.0942C56.1836 24.877 50.4649 22.5053 44.5003 22.5L44.4999 22.5005ZM44.4999 65.7675C38.9908 65.7675 33.7065 63.579 29.8112 59.6835C25.9158 55.7877 23.7272 50.504 23.7272 44.9948C23.7272 39.4856 25.9158 34.2023 29.8112 30.306C33.7066 26.4106 38.9908 24.2221 44.4999 24.2221C50.0091 24.2221 55.2924 26.4106 59.1878 30.306C63.0836 34.2018 65.2721 39.4856 65.2721 44.9948C65.2664 50.5022 63.0762 55.7827 59.1817 59.6772C55.2873 63.5716 50.0067 65.7619 44.4993 65.7672L44.4999 65.7675Z" fill="white"/>
<path d="M44.4997 27.2149C40.9767 27.2188 37.5337 28.2677 34.6072 30.2288C31.6801 32.1894 29.4005 34.9743 28.0565 38.2309C26.7124 41.4874 26.3644 45.0697 27.0565 48.5236C27.7486 51.9782 29.4495 55.1497 31.9442 57.6369C34.4389 60.1241 37.6154 61.8166 41.072 62.4987C44.5285 63.1809 48.1096 62.8226 51.362 61.4693C54.6149 60.116 57.3931 57.8282 59.3457 54.8959C61.2982 51.9632 62.3372 48.5175 62.3312 44.9943C62.3191 40.2735 60.435 35.7503 57.092 32.4174C53.7492 29.0843 49.2209 27.2129 44.5006 27.2144L44.4997 27.2149ZM44.4997 61.1037C40.235 61.1051 36.1446 59.413 33.1276 56.3993C30.1105 53.3854 28.4139 49.2965 28.4111 45.0325C28.4079 40.7682 30.0986 36.6771 33.111 33.6586C36.1234 30.6404 40.2116 28.942 44.4759 28.9371C48.7403 28.9321 52.832 30.6209 55.8517 33.6323C58.8715 36.6437 60.5714 40.7309 60.5782 44.9954C60.5743 49.2591 58.8791 53.3467 55.8648 56.3622C52.8506 59.3774 48.7631 61.074 44.4999 61.0794L44.4997 61.1037Z" fill="white"/>
<path d="M51.9269 40.0222L45.3634 43.939V31.6043C45.3634 31.1273 44.9768 30.7407 44.4998 30.7407C44.0228 30.7407 43.6362 31.1273 43.6362 31.6043V45.463C43.6376 45.7734 43.8042 46.0597 44.0728 46.215C44.2039 46.2869 44.3503 46.3252 44.4998 46.3266C44.6554 46.3266 44.8081 46.2844 44.9417 46.2047L52.8106 41.5055C53.2082 41.256 53.334 40.7351 53.0937 40.3318C52.8535 39.9285 52.3354 39.7911 51.9268 40.0221L51.9269 40.0222Z" fill="white"/>
<path d="M58.1554 44.1316H56.2046C55.7517 44.1663 55.4023 44.5437 55.4023 44.9976C55.4023 45.4516 55.7517 45.8293 56.2046 45.8637H58.1554C58.6079 45.8293 58.9577 45.4516 58.9577 44.9976C58.9577 44.5437 58.6079 44.1663 58.1554 44.1316Z" fill="white"/>
<path d="M32.7947 44.1316H30.834C30.3811 44.1663 30.0317 44.5437 30.0317 44.9976C30.0317 45.4516 30.3811 45.8293 30.834 45.8637H32.7898C33.2426 45.8293 33.592 45.4516 33.592 44.9976C33.592 44.5437 33.2426 44.1663 32.7898 44.1316H32.7947Z" fill="white"/>
<path d="M44.5001 55.3994C44.0231 55.3994 43.6365 55.786 43.6365 56.263V58.2038C43.6365 58.6808 44.0231 59.0674 44.5001 59.0674C44.977 59.0674 45.3636 58.6808 45.3636 58.2038V56.263C45.3636 55.786 44.977 55.3994 44.5001 55.3994Z" fill="white"/>
</svg>
