<svg width="35" height="35" viewBox="0 0 35 35" fill="none" xmlns="http://www.w3.org/2000/svg">
<path d="M17.5 35C27.165 35 35 27.165 35 17.5C35 7.83502 27.165 0 17.5 0C7.83502 0 0 7.83502 0 17.5C0 27.165 7.83502 35 17.5 35Z" fill="#25D366"/>
<path fill-rule="evenodd" clip-rule="evenodd" d="M18.0767 27.2362H18.0724C16.3308 27.2356 14.6196 26.7987 13.0997 25.9696L7.58325 27.4167L9.05953 22.0244C8.14889 20.4462 7.66972 18.6561 7.6705 16.8221C7.67278 11.0846 12.3409 6.41669 18.0766 6.41669C20.8604 6.41789 23.4731 7.50159 25.4378 9.46855C27.4024 11.4354 28.4838 14.0498 28.4827 16.8303C28.4804 22.5665 23.8141 27.2339 18.0767 27.2362ZM13.3553 24.0858L13.6711 24.2732C14.9991 25.0612 16.5213 25.4782 18.0733 25.4788H18.0768C22.8439 25.4788 26.7239 21.5988 26.7258 16.8297C26.7267 14.5186 25.8279 12.3456 24.1949 10.7107C22.562 9.07587 20.3904 8.17509 18.0802 8.17429C13.3094 8.17429 9.42938 12.0539 9.42749 16.8227C9.42682 18.4569 9.88409 20.0485 10.7499 21.4256L10.9555 21.7528L10.0818 24.9445L13.3553 24.0858ZM22.9631 19.0707C23.1444 19.1583 23.2669 19.2175 23.3191 19.3048C23.3841 19.4132 23.3841 19.9338 23.1676 20.5413C22.9508 21.1486 21.9121 21.7029 21.4125 21.7775C20.9645 21.8445 20.3976 21.8724 19.7748 21.6745C19.3971 21.5547 18.9129 21.3947 18.2925 21.1268C15.855 20.0743 14.2077 17.7117 13.8963 17.2652C13.8745 17.234 13.8593 17.2121 13.8508 17.2007L13.8487 17.1979C13.7111 17.0143 12.7891 15.7842 12.7891 14.511C12.7891 13.3133 13.3774 12.6855 13.6482 12.3966C13.6667 12.3768 13.6838 12.3586 13.6991 12.3419C13.9374 12.0816 14.2191 12.0165 14.3924 12.0165C14.5658 12.0165 14.7393 12.0181 14.8908 12.0257C14.9095 12.0266 14.9289 12.0265 14.949 12.0264C15.1005 12.0255 15.2894 12.0244 15.4758 12.472C15.5475 12.6443 15.6524 12.8997 15.763 13.169C15.9868 13.7137 16.234 14.3156 16.2775 14.4027C16.3425 14.5328 16.3858 14.6846 16.2991 14.8582C16.2861 14.8842 16.2741 14.9088 16.2626 14.9323C16.1975 15.0652 16.1496 15.1629 16.0391 15.2919C15.9957 15.3426 15.9508 15.3973 15.9059 15.452C15.8164 15.561 15.727 15.6699 15.6491 15.7475C15.5189 15.8771 15.3834 16.0178 15.5351 16.2781C15.6868 16.5384 16.2086 17.3898 16.9816 18.0793C17.8125 18.8205 18.5346 19.1337 18.9007 19.2925C18.9722 19.3235 19.0301 19.3486 19.0726 19.3699C19.3325 19.5001 19.4841 19.4783 19.6358 19.3048C19.7875 19.1313 20.2858 18.5455 20.4591 18.2853C20.6324 18.0251 20.8058 18.0684 21.0441 18.1551C21.2825 18.242 22.5608 18.8709 22.8209 19.0011C22.8716 19.0265 22.9191 19.0494 22.9631 19.0707Z" fill="#FDFDFD"/>
</svg>
